<svg width="20" height="20" viewBox="0 0 20 20" fill="none" xmlns="http://www.w3.org/2000/svg">
<circle cx="10" cy="10" r="10" fill="#262626"/>
<path d="M13.863 13.7179C12.7861 14.5128 11.1707 15 9.863 15C7.9912 15 6.32453 14.2564 5.04248 13.1025C4.93992 13 5.04248 12.8974 5.14505 12.9487C6.52966 13.7436 8.09377 14.2051 9.83736 14.2051C11.0168 14.2051 12.504 13.9487 13.7092 13.4359C13.8886 13.3846 14.0425 13.5897 13.863 13.7179ZM14.2476 13.1795C14.1194 13 13.3502 13.1025 13.0168 13.1282C12.9143 13.1282 12.8886 13.0513 12.9912 12.9743C13.5809 12.5384 14.5809 12.6666 14.6835 12.8205C14.7861 12.9743 14.6579 13.9743 14.0938 14.4359C14.0168 14.5128 13.9143 14.4615 13.9656 14.3846C14.0938 14.0769 14.3758 13.3589 14.2476 13.1795Z" fill="#FFB300"/>
<path d="M13.1707 11.359C12.9143 11.0256 12.6579 10.7436 12.6579 10.1026V7.97436C12.6579 7.07692 12.6579 6.28205 12.0168 5.66667C11.504 5.17949 10.6579 5 9.99119 5C8.58094 5 7.35017 5.5641 7.04248 7.15385C7.01683 7.33333 7.14504 7.41026 7.2476 7.4359L8.5553 7.58974C8.6835 7.58974 8.76042 7.46154 8.78607 7.33333C8.88863 6.79487 9.32453 6.53846 9.83735 6.53846C10.1194 6.53846 10.6579 6.69231 10.6579 7.30769V8.07692C9.83735 8.07692 8.96555 8.07692 8.2476 8.38462C7.40145 8.74359 6.81171 9.48718 6.81171 10.5897C6.81171 12 7.6835 12.6923 8.81171 12.6923C9.76042 12.6923 10.3245 12.4615 11.0681 11.7179C11.2989 12.0769 11.4015 12.2821 11.8373 12.6667C11.9399 12.7179 12.0681 12.7179 12.145 12.641C12.4015 12.4103 12.8886 11.9744 13.1707 11.7436C13.2989 11.641 13.2732 11.4872 13.1707 11.359ZM10.6322 9.38462C10.6322 9.89744 10.6066 11.1538 9.35017 11.1538C8.58094 11.1538 8.58094 10.3846 8.58094 10.3846C8.58094 9.23077 9.65786 9.10256 10.6322 9.10256V9.38462Z" fill="white"/>
</svg>
