<svg width="115" height="72" viewBox="0 0 115 72" fill="none" xmlns="http://www.w3.org/2000/svg">
<rect width="115" height="72" />
<rect y="16.9536" width="111" height="69.4601" rx="3" transform="rotate(-15.12 0 16.9536)" fill="#C4C4C4"/>
<g clip-path="url(#clip0)">
<rect x="44.5767" y="23.187" width="23.6614" height="23.6614" rx="3" transform="rotate(-15.12 44.5767 23.187)" fill="#C4C4C4"/>
<path d="M67.7402 27.3452L63.268 26.1563L59.0379 31.5485L65.4079 34.0766L68.6839 30.7859C69.1897 30.2547 69.3773 29.5146 69.186 28.8066C68.9947 28.0987 68.4599 27.5538 67.7402 27.3452Z" fill="#FF9100"/>
<path d="M60.378 31.1866C60.3742 31.1957 57.3198 38.4779 57.3173 38.4838L52.5177 44.9328C52.0411 44.659 51.6758 44.2114 51.5237 43.6485L46.4435 24.8466C46.2914 24.2838 46.3816 23.713 46.6555 23.2365L54.0588 26.4239C54.0639 26.4277 60.3702 31.1808 60.378 31.1866Z" fill="#25D9F8"/>
<path d="M60.378 31.1869L59.505 33.2775L58.5709 29.8203L60.378 31.1869Z" fill="#00C0F1"/>
<path d="M63.2733 26.1484L60.3786 31.1865L46.6561 23.2364C46.7574 23.0795 46.8661 22.9495 46.9882 22.8159C47.5336 22.2804 48.301 22.0873 49.0359 22.3058L57.1414 24.527L63.2733 26.1484Z" fill="#7FE881"/>
<path d="M63.2726 26.1482L60.3779 31.1863L58.6759 30.2084L57.1407 24.5269L63.2726 26.1482Z" fill="#5BC980"/>
<path d="M65.4167 34.0811L60.9358 38.5701L55.0332 44.5551C54.7623 44.8296 54.4428 45.0309 54.081 45.1287C53.746 45.2192 53.3856 45.2159 53.017 45.1286C52.8442 45.0746 52.6849 45.0171 52.5183 44.9327L60.3786 31.1865L65.4167 34.0811Z" fill="#FF637B"/>
<path d="M65.4161 34.0814L60.9352 38.5704L59.4 32.8888L60.378 31.1868L65.4161 34.0814Z" fill="#E63950"/>
</g>
<path d="M52.2752 52.7062C52.2323 52.5474 52.3263 52.3839 52.4851 52.341L53.6872 52.0162C53.7536 51.9983 53.8224 52.0374 53.8427 52.1031V52.1031C53.8848 52.2371 53.9123 52.3279 53.9252 52.3755C54.0845 52.9649 54.0444 53.4669 53.805 53.8816C53.5656 54.2962 53.1479 54.5841 52.5521 54.7451C52.219 54.835 51.9084 54.8648 51.6201 54.8342C51.3319 54.8036 51.0621 54.7127 50.8109 54.5616C50.5638 54.4115 50.3516 54.214 50.1743 53.9692C49.9988 53.724 49.8691 53.4459 49.785 53.135C49.6995 52.8184 49.6725 52.5126 49.7039 52.2176C49.7373 51.922 49.8291 51.6445 49.9793 51.3849C50.1232 51.1311 50.3142 50.9158 50.5523 50.7389C50.7904 50.562 51.0612 50.4325 51.3647 50.3505C51.6848 50.264 51.987 50.2469 52.2711 50.299C52.4599 50.3331 52.6441 50.3984 52.8237 50.4947C52.981 50.579 53.0096 50.7847 52.902 50.9271V50.9271C52.7981 51.0646 52.6055 51.0905 52.4476 51.0216C52.3512 50.9795 52.2531 50.9498 52.1534 50.9325C51.9596 50.8989 51.7564 50.9109 51.5436 50.9684C51.1032 51.0874 50.7827 51.3305 50.5821 51.6979C50.3829 52.0628 50.3461 52.4779 50.4719 52.9433C50.5997 53.4163 50.8423 53.7632 51.1998 53.9838C51.5585 54.202 51.96 54.2512 52.4041 54.1312C52.7816 54.0292 53.0541 53.8583 53.2216 53.6186C53.3892 53.3789 53.4307 53.1027 53.3462 52.7899V52.7899C53.3372 52.7567 53.3031 52.7371 53.2699 52.746L52.6404 52.9161C52.4816 52.959 52.3181 52.865 52.2752 52.7062V52.7062Z" fill="white"/>
<path d="M56.7488 52.0455C56.6808 51.7937 56.5447 51.6023 56.3405 51.4712C56.1358 51.3382 55.9196 51.3025 55.692 51.364C55.4663 51.425 55.2975 51.5647 55.1858 51.7832C55.0754 51.9993 55.0542 52.2332 55.1223 52.485C55.1903 52.7367 55.3267 52.9291 55.5314 53.0621C55.7374 53.1927 55.9533 53.2274 56.179 53.1664C56.4048 53.1054 56.5729 52.9669 56.6833 52.7508C56.795 52.5324 56.8168 52.2972 56.7488 52.0455ZM54.4851 52.651C54.4315 52.4526 54.4171 52.256 54.4418 52.061C54.4679 51.8636 54.5309 51.6777 54.6307 51.5034C54.7292 51.3315 54.8566 51.1855 55.0128 51.0656C55.169 50.9456 55.3433 50.8596 55.5357 50.8076C55.7337 50.7541 55.9295 50.7401 56.123 50.7656C56.3184 50.7906 56.5046 50.8549 56.6815 50.9585C56.8579 51.0603 57.0059 51.1891 57.1255 51.3451C57.245 51.5011 57.3308 51.6754 57.3829 51.868C57.437 52.0683 57.4517 52.2659 57.4269 52.4609C57.404 52.6554 57.3424 52.8388 57.2421 53.0112C57.1364 53.1933 57.0054 53.3443 56.8492 53.4643C56.6935 53.5861 56.5185 53.6733 56.3242 53.7258C56.1336 53.7773 55.9404 53.7896 55.7445 53.7628C55.5491 53.7378 55.3642 53.6742 55.1896 53.5719C55.0127 53.4683 54.8644 53.3385 54.7449 53.1825C54.6253 53.0265 54.5387 52.8493 54.4851 52.651Z" fill="white"/>
<path d="M60.0907 51.1425C60.0227 50.8907 59.8866 50.6993 59.6824 50.5683C59.4777 50.4353 59.2616 50.3995 59.034 50.461C58.8082 50.522 58.6395 50.6618 58.5277 50.8802C58.4173 51.0963 58.3962 51.3302 58.4642 51.582C58.5322 51.8338 58.6686 52.0261 58.8733 52.1591C59.0793 52.2897 59.2952 52.3245 59.521 52.2635C59.7467 52.2025 59.9148 52.0639 60.0252 51.8479C60.1369 51.6294 60.1588 51.3943 60.0907 51.1425ZM57.827 51.748C57.7734 51.5497 57.759 51.353 57.7837 51.158C57.8098 50.9606 57.8728 50.7748 57.9726 50.6004C58.0711 50.4285 58.1985 50.2826 58.3547 50.1626C58.5109 50.0426 58.6852 49.9566 58.8777 49.9046C59.0757 49.8511 59.2714 49.8371 59.4649 49.8626C59.6603 49.8876 59.8465 49.9519 60.0234 50.0555C60.1998 50.1573 60.3478 50.2861 60.4674 50.4421C60.5869 50.5981 60.6728 50.7724 60.7248 50.965C60.7789 51.1653 60.7936 51.3629 60.7688 51.5579C60.7459 51.7524 60.6843 51.9358 60.584 52.1083C60.4783 52.2903 60.3473 52.4413 60.1911 52.5613C60.0354 52.6832 59.8604 52.7704 59.6662 52.8229C59.4756 52.8744 59.2823 52.8867 59.0864 52.8598C58.891 52.8348 58.7061 52.7712 58.5315 52.669C58.3546 52.5653 58.2064 52.4355 58.0868 52.2795C57.9672 52.1235 57.8806 51.9464 57.827 51.748Z" fill="white"/>
<path d="M63.2504 50.2704C63.1746 49.99 63.0518 49.7889 62.8818 49.6669C62.7137 49.5445 62.5159 49.5141 62.2883 49.5756C62.0607 49.6371 61.9031 49.7666 61.8155 49.9643C61.7293 50.1595 61.7248 50.4001 61.8021 50.6862C61.8799 50.9743 62.0029 51.1795 62.171 51.3019C62.339 51.4243 62.5378 51.4545 62.7673 51.3925C62.9838 51.334 63.1366 51.2016 63.2259 50.9953C63.3169 50.7886 63.3251 50.5469 63.2504 50.2704ZM64.1592 51.308C64.3024 51.8383 64.3005 52.2389 64.1533 52.5099C64.0067 52.7829 63.69 52.9851 63.2033 53.1166C62.8406 53.2146 62.5297 53.2137 62.2704 53.1139C62.1303 53.0609 62.0173 52.9841 61.9313 52.8836C61.8063 52.7374 61.922 52.535 62.1074 52.484V52.484C62.2819 52.436 62.4637 52.5594 62.6347 52.6183C62.6387 52.6197 62.6428 52.621 62.6469 52.6223C62.7596 52.6573 62.9029 52.6513 63.0768 52.6043C63.3341 52.5348 63.5034 52.4266 63.5848 52.2798C63.6663 52.133 63.6711 51.9229 63.5992 51.6497V51.6497C63.5718 51.5415 63.4018 51.5281 63.3342 51.6169C63.3006 51.6611 63.2639 51.7017 63.2242 51.7387C63.1023 51.8535 62.9489 51.9359 62.7638 51.9859C62.3919 52.0864 62.0633 52.035 61.778 51.8317C61.4941 51.626 61.2905 51.2952 61.1674 50.8393C61.0504 50.4064 61.0653 50.0278 61.212 49.7037C61.3582 49.3777 61.6071 49.1672 61.9587 49.0722C62.1733 49.0142 62.3691 49.0114 62.5461 49.0639C62.6 49.079 62.6511 49.0989 62.6994 49.1235C62.7727 49.161 62.9106 49.0791 62.8892 48.9997V48.9997C62.8784 48.9597 62.902 48.9186 62.9419 48.9078L63.1708 48.846C63.3371 48.801 63.5084 48.8994 63.5533 49.0658L64.1592 51.308Z" fill="white"/>
<path d="M65.3664 51.163C65.2001 51.2079 65.0288 51.1095 64.9839 50.9432L63.9484 47.1109C63.9035 46.9446 64.0019 46.7733 64.1682 46.7284V46.7284C64.3345 46.6835 64.5058 46.7819 64.5507 46.9482L65.5862 50.7804C65.6311 50.9468 65.5327 51.118 65.3664 51.163V51.163Z" fill="white"/>
<path d="M68.6916 48.7818C68.7091 48.8465 68.6708 48.9132 68.606 48.9308L67.2663 49.2927C66.9153 49.3876 66.6921 49.809 66.9994 50.0034V50.0034C67.1689 50.109 67.3629 50.1323 67.5812 50.0734C67.7755 50.0209 67.9261 49.9351 68.0329 49.8162C68.0834 49.76 68.1271 49.6933 68.1639 49.6162C68.2376 49.4618 68.4001 49.3549 68.5655 49.3985V49.3985C68.7229 49.4399 68.8215 49.6009 68.7616 49.7523C68.6875 49.9399 68.5882 50.0994 68.4637 50.2309C68.2814 50.4234 68.0431 50.5594 67.7489 50.6389C67.327 50.7529 66.9553 50.7111 66.6339 50.5135C66.3125 50.3159 66.0919 49.9958 65.9724 49.5533C65.8575 49.128 65.8918 48.7442 66.0753 48.4019C66.2601 48.0573 66.5552 47.8302 66.9604 47.7207C67.3842 47.6062 67.7482 47.6419 68.0526 47.8278C68.357 48.0136 68.57 48.3316 68.6916 48.7818V48.7818ZM67.4802 48.7867C67.7489 48.7141 67.9019 48.3824 67.6496 48.2651V48.2651C67.5015 48.1946 67.3229 48.1876 67.1138 48.2441C66.9158 48.2976 66.77 48.3902 66.6765 48.5219V48.5219C66.5162 48.7478 66.8024 48.9699 67.0698 48.8976L67.4802 48.7867Z" fill="white"/>
<path d="M71.4166 46.731C71.4419 46.8245 71.5382 46.8798 71.6317 46.8546V46.8546C71.9981 46.7556 72.2313 46.6486 72.3312 46.5336C72.4312 46.4185 72.4531 46.2571 72.3969 46.0492C72.3366 45.826 72.2284 45.6864 72.0723 45.6304C71.918 45.5738 71.666 45.5928 71.3163 45.6873V45.6873C71.2228 45.7125 71.1675 45.8088 71.1927 45.9023L71.4166 46.731ZM71.9517 47.3667C71.7417 47.4235 71.6175 47.6397 71.6742 47.8497L71.9957 49.0397C72.0419 49.2106 71.9408 49.3866 71.7699 49.4328V49.4328C71.5989 49.479 71.4229 49.3778 71.3768 49.2069L70.5987 46.3271C70.4495 45.7753 70.776 45.207 71.3279 45.0579V45.0579C71.624 44.9779 71.846 44.9363 71.9941 44.9331C72.1435 44.9276 72.2803 44.9489 72.4046 44.9972C72.5585 45.06 72.694 45.1646 72.811 45.311C72.9275 45.4556 73.0125 45.627 73.0661 45.8254C73.1197 46.0237 73.1331 46.2166 73.1063 46.4039C73.0795 46.5913 73.0151 46.7499 72.9132 46.8798C72.8302 46.9841 72.7228 47.0714 72.5909 47.1418C72.4609 47.2118 72.2478 47.2867 71.9517 47.3667V47.3667Z" fill="white"/>
<path d="M74.7648 48.6236C74.5985 48.6685 74.4272 48.5701 74.3823 48.4038L73.3468 44.5715C73.3019 44.4052 73.4003 44.2339 73.5666 44.189V44.189C73.733 44.144 73.9042 44.2424 73.9492 44.4088L74.9846 48.241C75.0296 48.4073 74.9312 48.5786 74.7648 48.6236V48.6236Z" fill="white"/>
<path d="M78.3238 47.3388C78.3687 47.5051 78.2703 47.6764 78.104 47.7213L77.8861 47.7802C77.8401 47.7926 77.7927 47.7654 77.7803 47.7194V47.7194C77.7582 47.6376 77.6337 47.6298 77.5887 47.7017C77.5414 47.7772 77.4867 47.844 77.4245 47.9018C77.3027 48.0166 77.1492 48.099 76.9642 48.149C76.5922 48.2495 76.2636 48.1981 75.9784 47.9948C75.6944 47.7891 75.4909 47.4583 75.3677 47.0025C75.2507 46.5695 75.2656 46.1909 75.4123 45.8668C75.5585 45.5408 75.8074 45.3303 76.159 45.2353C76.3737 45.1773 76.5695 45.1745 76.7465 45.227C76.8004 45.2421 76.8514 45.262 76.8997 45.2867C76.973 45.3241 77.111 45.2422 77.0895 45.1628V45.1628C77.0787 45.1228 77.1023 45.0817 77.1423 45.0709L77.3711 45.0091C77.5375 44.9642 77.7087 45.0626 77.7537 45.2289L78.3238 47.3388ZM77.4507 46.4335C77.375 46.1531 77.2521 45.952 77.0822 45.8301C76.9141 45.7077 76.7162 45.6772 76.4886 45.7387C76.261 45.8002 76.1034 45.9298 76.0159 46.1274C75.9296 46.3226 75.9251 46.5633 76.0025 46.8494C76.0803 47.1374 76.2032 47.3426 76.3713 47.465C76.5394 47.5874 76.7382 47.6176 76.9676 47.5556C77.1841 47.4971 77.337 47.3647 77.4262 47.1585C77.5173 46.9517 77.5254 46.7101 77.4507 46.4335Z" fill="white"/>
<path d="M80.0678 48.3891C80.0478 48.4988 79.9664 48.5873 79.8588 48.6164V48.6164C79.6534 48.6718 79.4605 48.4941 79.499 48.285L79.6623 47.3962C79.7052 47.1628 79.6496 46.922 79.5087 46.731L78.3696 45.187C78.2371 45.0075 78.3266 44.7509 78.542 44.6927V44.6927C78.6726 44.6574 78.8113 44.709 78.8872 44.8211L79.6229 45.908C79.6738 45.9863 79.7216 46.0676 79.7662 46.1517V46.1517C79.7961 46.205 79.9043 46.184 79.9114 46.1233C79.919 46.0584 79.9288 45.9856 79.9408 45.905L79.9454 45.8669L80.1729 44.4374C80.1916 44.3196 80.2778 44.2237 80.393 44.1926V44.1926C80.6079 44.1345 80.8099 44.3203 80.7699 44.5393L80.0678 48.3891Z" fill="white"/>
<defs>
<clipPath id="clip0">
<rect x="44.5767" y="23.187" width="23.6614" height="23.6614" rx="3" transform="rotate(-15.12 44.5767 23.187)" fill="white"/>
</clipPath>
</defs>
</svg>
