<svg width="20" height="20" viewBox="0 0 20 20" fill="none" xmlns="http://www.w3.org/2000/svg">
<rect width="20" height="20" rx="10" fill="#C4C4C4"/>
<path d="M15.5823 9.33505L13.8549 8.3374L11.4882 10.1058L13.8548 11.8741L15.5882 10.873C15.8584 10.7089 16.0197 10.4219 16.0197 10.1058C16.0197 9.78967 15.8584 9.50277 15.5823 9.33505Z" fill="#FF9100"/>
<path d="M12.0861 10.106C12.0835 10.1093 9.99351 12.7964 9.99181 12.7986L7.26926 14.9427C7.1017 14.7752 7 14.5478 7 14.2965V5.90061C7 5.64931 7.1017 5.42192 7.26926 5.25439L9.99181 7.41333C9.99351 7.4155 12.0835 10.1026 12.0861 10.106Z" fill="#25D9F8"/>
<path d="M12.0865 10.1064L11.4882 10.8783V9.33447L12.0865 10.1064Z" fill="#00C0F1"/>
<path d="M13.857 8.33485L12.0859 10.106L7.26904 5.25447C7.32886 5.2006 7.38872 5.15872 7.45454 5.11683C7.74173 4.95529 8.08282 4.96126 8.36407 5.1348L11.4875 6.9706L13.857 8.33485Z" fill="#7FE881"/>
<path d="M13.8577 8.33446L12.0865 10.1056L11.4882 9.50727V6.97021L13.8577 8.33446Z" fill="#5BC980"/>
<path d="M13.857 11.8771L11.4875 13.2414L8.35808 15.0684C8.21448 15.1521 8.0589 15.2 7.89732 15.2C7.74773 15.2 7.59814 15.1581 7.45454 15.0803C7.38872 15.0384 7.32886 14.9966 7.26904 14.9427L12.0859 10.106L13.857 11.8771Z" fill="#FF637B"/>
<path d="M13.8577 11.8771L11.4882 13.2414V10.7043L12.0865 10.106L13.8577 11.8771Z" fill="#E63950"/>
</svg>
