<svg width="20" height="20" viewBox="0 0 20 20" fill="none" xmlns="http://www.w3.org/2000/svg">
<circle cx="10" cy="10" r="10" fill="#2B7AF2"/>
<path d="M14.2053 12.2867C13.9754 12.796 13.8657 13.0244 13.5697 13.4736C13.1581 14.1031 12.5751 14.8873 11.854 14.8918C11.214 14.8979 11.0487 14.4742 10.1788 14.4817C9.30892 14.4847 9.12713 14.8994 8.4856 14.8933C7.76595 14.8873 7.21457 14.1797 6.80141 13.5532C5.64606 11.7939 5.52436 9.73109 6.238 8.63433C6.74281 7.85609 7.54209 7.39936 8.29329 7.39936C9.05651 7.39936 9.53728 7.81853 10.1698 7.81853C10.7828 7.81853 11.1554 7.39786 12.0403 7.39786C12.7074 7.39786 13.415 7.76144 13.9198 8.39094C12.2672 9.29539 12.5361 11.6557 14.2053 12.2867ZM11.3687 6.69473C11.6902 6.28307 11.9336 5.70014 11.8465 5.10669C11.3206 5.14275 10.7077 5.47778 10.3486 5.91048C10.0241 6.30561 9.75513 6.89305 9.8603 7.46096C10.4327 7.47899 11.0247 7.13794 11.3687 6.69473Z" fill="white"/>
</svg>
