<?xml version="1.0" encoding="utf-8"?>
<!-- Generator: Adobe Illustrator 16.0.0, SVG Export Plug-In . SVG Version: 6.00 Build 0)  -->
<!DOCTYPE svg PUBLIC "-//W3C//DTD SVG 1.1//EN" "http://www.w3.org/Graphics/SVG/1.1/DTD/svg11.dtd">
<svg version="1.1" id="Layer_1" xmlns="http://www.w3.org/2000/svg" xmlns:xlink="http://www.w3.org/1999/xlink" x="0px" y="0px"
	 width="67px" height="64px" viewBox="0 0 67 64" enable-background="new 0 0 67 64" xml:space="preserve">
<path fill="#2ACDDD" d="M58.793,0h17.586c2.762,0,5,2.239,5,5v17.586c0,2.761-2.238,5-5,5H58.793c-2.762,0-5-2.239-5-5V5
	C53.793,2.239,56.031,0,58.793,0z"/>
<path fill="#2ACDDD" d="M58.793,36.414h17.586c2.762,0,5,2.238,5,5V59c0,2.762-2.238,5-5,5H58.793c-2.762,0-5-2.238-5-5V41.414
	C53.793,38.652,56.031,36.414,58.793,36.414z"/>
<path fill="#2ACDDD" d="M5.828,0h34.137c2.762,0,5,2.239,5,5v34.138c0,2.762-2.238,5-5,5H5.828c-2.761,0-5-2.238-5-5V5
	C0.828,2.239,3.066,0,5.828,0z"/>
<path fill="#2ACDDD" d="M36.172,50.207h3.794c2.761,0,5,2.238,5,5V59c0,2.762-2.239,5-5,5h-3.794c-2.761,0-5-2.238-5-5v-3.793
	C31.172,52.445,33.411,50.207,36.172,50.207z"/>
</svg>
