<?xml version="1.0" encoding="utf-8"?>
<!-- Generator: Adobe Illustrator 16.0.0, SVG Export Plug-In . SVG Version: 6.00 Build 0)  -->
<!DOCTYPE svg PUBLIC "-//W3C//DTD SVG 1.1//EN" "http://www.w3.org/Graphics/SVG/1.1/DTD/svg11.dtd">
<svg version="1.1" id="Layer_1" xmlns="http://www.w3.org/2000/svg" xmlns:xlink="http://www.w3.org/1999/xlink" x="0px" y="0px"
	 width="58px" height="61px" viewBox="0 0 58 61" enable-background="new 0 0 58 61" xml:space="preserve">
<path opacity="0.3" fill="#2ACDDD" enable-background="new    " d="M36.973,0H53c2.762,0,5,2.239,5,5v16.027c0,2.761-2.238,5-5,5
	H36.973c-2.762,0-5-2.239-5-5V5C31.973,2.239,34.211,0,36.973,0z"/>
<path opacity="0.3" fill="#2ACDDD" enable-background="new    " d="M36.973,34.355H53c2.762,0,5,2.239,5,5v16.028
	c0,2.761-2.238,5-5,5H36.973c-2.762,0-5-2.239-5-5V39.355C31.973,36.595,34.211,34.355,36.973,34.355z"/>
<path opacity="0.3" fill="#2ACDDD" enable-background="new    " d="M-13,0h31.644c2.761,0,5,2.239,5,5v31.645c0,2.761-2.239,5-5,5
	H-13c-2.761,0-5-2.239-5-5V5C-18,2.239-15.761,0-13,0z"/>
<path opacity="0.3" fill="#2ACDDD" enable-background="new    " d="M15.63,47.37h3.014c2.761,0,5,2.238,5,5v3.014
	c0,2.761-2.239,5-5,5H15.63c-2.761,0-5-2.239-5-5V52.37C10.63,49.608,12.869,47.37,15.63,47.37z"/>
</svg>
